D:\PredSim\limbproperties\Ratio80_downhill10\Ratio80_downhill10_IK_walking_1.5.mot
version=1
nRows=4
nColumns=124
inDegrees=yes
endheader
                time	         pelvis_tilt	         pelvis_list	     pelvis_rotation	           pelvis_tx	           pelvis_ty	           pelvis_tz	       hip_flexion_r	     hip_adduction_r	      hip_rotation_r	        knee_angle_r	       ankle_angle_r	    subtalar_angle_r	         mtp_angle_r	       hip_flexion_l	     hip_adduction_l	      hip_rotation_l	        knee_angle_l	       ankle_angle_l	    subtalar_angle_l	         mtp_angle_l	    lumbar_extension	      lumbar_bending	     lumbar_rotation	          arm_flex_r	           arm_add_r	           arm_rot_r	        elbow_flex_r	          arm_flex_l	           arm_add_l	           arm_rot_l	        elbow_flex_l	glut_med1_r/activation	glut_med2_r/activation	glut_med3_r/activation	glut_min1_r/activation	glut_min2_r/activation	glut_min3_r/activation	semimem_r/activation	semiten_r/activation	bifemlh_r/activation	bifemsh_r/activation	    sar_r/activation	add_long_r/activation	add_brev_r/activation	add_mag1_r/activation	add_mag2_r/activation	add_mag3_r/activation	    tfl_r/activation	   pect_r/activation	   grac_r/activation	glut_max1_r/activation	glut_max2_r/activation	glut_max3_r/activation	iliacus_r/activation	  psoas_r/activation	quad_fem_r/activation	    gem_r/activation	   peri_r/activation	rect_fem_r/activation	vas_med_r/activation	vas_int_r/activation	vas_lat_r/activation	med_gas_r/activation	lat_gas_r/activation	 soleus_r/activation	tib_post_r/activation	flex_dig_r/activation	flex_hal_r/activation	tib_ant_r/activation	per_brev_r/activation	per_long_r/activation	per_tert_r/activation	ext_dig_r/activation	ext_hal_r/activation	glut_med1_l/activation	glut_med2_l/activation	glut_med3_l/activation	glut_min1_l/activation	glut_min2_l/activation	glut_min3_l/activation	semimem_l/activation	semiten_l/activation	bifemlh_l/activation	bifemsh_l/activation	    sar_l/activation	add_long_l/activation	add_brev_l/activation	add_mag1_l/activation	add_mag2_l/activation	add_mag3_l/activation	    tfl_l/activation	   pect_l/activation	   grac_l/activation	glut_max1_l/activation	glut_max2_l/activation	glut_max3_l/activation	iliacus_l/activation	  psoas_l/activation	quad_fem_l/activation	    gem_l/activation	   peri_l/activation	rect_fem_l/activation	vas_med_l/activation	vas_int_l/activation	vas_lat_l/activation	med_gas_l/activation	lat_gas_l/activation	 soleus_l/activation	tib_post_l/activation	flex_dig_l/activation	flex_hal_l/activation	tib_ant_l/activation	per_brev_l/activation	per_long_l/activation	per_tert_l/activation	ext_dig_l/activation	ext_hal_l/activation	 ercspn_r/activation	 ercspn_l/activation	 intobl_r/activation	 intobl_l/activation	 extobl_r/activation	 extobl_l/activation	
          0.49796555	          2.36526620	         -2.59130006	         -2.75922752	          0.74694832	          0.89936743	          0.00248750	        -14.83364047	          4.52839468	          5.65311228	        -22.21894165	         10.92329156	         11.44375661	         16.67702933	         26.15843353	         -1.33700843	         -2.19475933	        -10.35485495	         10.57189539	          0.83838233	          0.17632750	          2.12541078	          4.09462345	          2.45572155	          0.33938115	        -13.77821607	         15.22567905	         19.68878669	         -9.16556212	        -13.50481274	         16.24874793	         20.25332453	          0.17294001	          0.05332010	          0.05074949	          0.21863210	          0.11363727	          0.05000039	          0.05000037	          0.05000003	          0.05000005	          0.05000003	          0.05155840	          0.06100505	          0.05000005	          0.05000030	          0.05000053	          0.05000025	          0.13419632	          0.05000027	          0.05000020	          0.05000138	          0.05000083	          0.05000067	          0.20766586	          0.82127533	          0.05000104	          0.05000018	          0.05000009	          0.39295194	          0.12035855	          0.11273209	          0.06731858	          0.27636426	          0.29280810	          0.28206029	          0.24166835	          0.19753272	          0.23760938	          0.05000000	          0.11579240	          0.15565111	          0.05000001	          0.05000000	          0.05000001	          0.10472851	          0.05000043	          0.07940932	          0.05829945	          0.05829944	          0.05829658	          0.21608859	          0.12564241	          0.24051997	          0.07549866	          0.05000020	          0.06797636	          0.06797649	          0.08704445	          0.09781413	          0.19374083	          0.05000027	          0.05813641	          0.08140357	          0.06082562	          0.12108085	          0.21526641	          0.05829943	          0.06797646	          0.05000008	          0.05000041	          0.05829939	          0.05000004	          0.05000003	          0.05000003	          0.05000002	          0.06830518	          0.06797649	          0.06755442	          0.06797664	          0.06797620	          0.06797647	          0.46086741	          0.15845278	          0.15766101	          0.13339995	          0.54885524	          0.28267557	          0.05000000	          0.05065585	          0.05000001	          0.10493825	          0.05000000	          0.11753423	
          0.50792486	          2.37851440	         -2.63565107	         -2.87238071	          0.76504049	          0.89782473	          0.00221443	        -15.29617838	          4.33855930	          5.38885333	        -23.38407287	          9.51047072	         12.22364878	         17.96188459	         25.93521924	         -1.23256024	         -1.98501464	        -10.28848589	          9.85080920	          0.83323219	          0.21002129	          2.32827619	          3.93441357	          2.51495460	          0.01928064	        -13.83077548	         15.45286272	         20.00496367	         -9.81501668	        -13.53667314	         16.08481430	         20.06053991	          0.14832051	          0.05000012	          0.05000002	          0.18750794	          0.09746004	          0.06797564	          0.05000079	          0.05000004	          0.05000010	          0.05000007	          0.05000059	          0.15968111	          0.05144788	          0.05000019	          0.05000043	          0.05000045	          0.11509233	          0.05000041	          0.05000015	          0.05000034	          0.05000024	          0.05000029	          0.17810284	          0.85381212	          0.05000002	          0.10867004	          0.07598304	          0.33701185	          0.13672903	          0.14649724	          0.05773522	          0.23702142	          0.25112435	          0.24190657	          0.20726479	          0.16941227	          0.20378366	          0.05000000	          0.09930839	          0.13349287	          0.05000002	          0.05000000	          0.05000002	          0.19447416	          0.05829927	          0.11125940	          0.05000007	          0.05000014	          0.05000016	          0.18532655	          0.10775617	          0.21495017	          0.06475079	          0.05000005	          0.05829937	          0.05829948	          0.25113792	          0.18535686	          0.22082146	          0.05829945	          0.05000019	          0.06981514	          0.10352906	          0.16300714	          0.25588404	          0.05000003	          0.05829944	          0.10227879	          0.05000008	          0.05000003	          0.05000002	          0.05148957	          0.06218687	          0.05169409	          0.05858135	          0.05829946	          0.05829942	          0.05829959	          0.05829929	          0.05829949	          0.50318644	          0.21536857	          0.17124780	          0.11440936	          0.59535108	          0.32676950	          0.05000000	          0.05000000	          0.05000000	          0.08999939	          0.05000000	          0.10080222	
          0.51788417	          2.39746536	         -2.65492122	         -2.96868358	          0.78327350	          0.89613099	          0.00192522	        -15.59365058	          4.13751827	          5.13709270	        -24.84636978	          7.99381868	         12.97576118	         19.16642382	         25.73717177	         -1.10428510	         -1.74878624	        -10.93482471	          8.66138322	          0.86059808	          0.23276984	          2.53763092	          3.73778204	          2.56397741	         -0.31807147	        -13.88420078	         15.68979214	         20.28586970	        -10.44717698	        -13.57855192	         15.94372099	         19.83510654	          0.12720581	          0.05000018	          0.06248487	          0.16081458	          0.08358578	          0.05829940	          0.05000032	          0.05000005	          0.05000017	          0.05000003	          0.05000210	          0.22447322	          0.23271312	          0.09922616	          0.05000210	          0.05000033	          0.09870796	          0.06797609	          0.05767195	          0.05000036	          0.05000026	          0.05000047	          0.15274836	          0.79500182	          0.13718312	          0.09320002	          0.06516623	          0.28903531	          0.12451203	          0.12564219	          0.12681757	          0.20327938	          0.21537464	          0.20746909	          0.17775887	          0.14529500	          0.17477332	          0.08436349	          0.08517100	          0.11448902	          0.05000004	          0.11987081	          0.05000010	          0.16678910	          0.05000002	          0.23310960	          0.05000018	          0.05000008	          0.05000009	          0.15894372	          0.09241615	          0.18435017	          0.05553299	          0.06797395	          0.05000002	          0.05000011	          0.25053237	          0.22534976	          0.24674827	          0.05000005	          0.05000023	          0.05987640	          0.16055885	          0.23403608	          0.32047889	          0.05000002	          0.05000004	          0.17862126	          0.06797677	          0.07415683	          0.05000063	          0.19696760	          0.18667407	          0.17643381	          0.05024179	          0.05000004	          0.05000000	          0.05000014	          0.05000004	          0.05000008	          0.70141097	          0.33210656	          0.20038974	          0.46777938	          0.73840180	          0.47960506	          0.05291805	          0.05000000	          0.05829943	          0.07718720	          0.05000000	          0.08645215	
          0.52784348	          2.42091434	         -2.63859582	         -3.04517627	          0.80150114	          0.89441274	          0.00165390	        -15.71448908	          3.92267973	          4.89666569	        -26.60214138	          6.43034712	         13.68825810	         20.04374560	         25.57069836	         -0.97737511	         -1.45647104	        -12.40167463	          6.87158080	          0.91622014	          0.23775908	          2.74475781	          3.49208571	          2.59983321	         -0.64471319	        -13.92058736	         15.93280951	         20.49900892	        -11.02820211	        -13.62932117	         15.83932050	         19.53883726	          0.10909697	          0.05000037	          0.05358964	          0.13792124	          0.07168664	          0.05000007	          0.06374484	          0.05000004	          0.05000006	          0.05000001	          0.05000035	          0.27384173	          0.29337878	          0.12202236	          0.05000199	          0.10775536	          0.08465605	          0.05829948	          0.05000135	          0.05470095	          0.06115956	          0.06930000	          0.13100332	          0.81081975	          0.11765464	          0.07993223	          0.05588927	          0.24788865	          0.10678673	          0.10775597	          0.10876400	          0.17434081	          0.18471421	          0.17793407	          0.15245337	          0.12461102	          0.14989284	          0.18211675	          0.07955577	          0.10077765	          0.05000012	          0.19721565	          0.05000012	          0.34618023	          0.38578369	          0.53911562	          0.36663867	          0.27455191	          0.34253270	          0.13631672	          0.07925993	          0.15810633	          0.05000003	          0.05829736	          0.05829945	          0.15936682	          0.21486706	          0.25005691	          0.28097375	          0.05000003	          0.05829957	          0.06797638	          0.32120608	          0.32210570	          0.39020627	          0.05829938	          0.05000004	          0.15319299	          0.05829970	          0.10904973	          0.05000000	          0.16892771	          0.25287122	          0.15581033	          0.05000000	          0.05000001	          0.05000000	          0.05000000	          0.05000005	          0.05000005	          0.82055453	          0.29912338	          0.17186264	          0.68014704	          0.84278520	          0.63543708	          0.08837579	          0.05501431	          0.05000001	          0.06619894	          0.06797644	          0.07414495	
